<?xml version="1.0" encoding="UTF-8" standalone="no"?>
<svg
   xmlns:dc="http://purl.org/dc/elements/1.1/"
   xmlns:cc="http://creativecommons.org/ns#"
   xmlns:rdf="http://www.w3.org/1999/02/22-rdf-syntax-ns#"
   xmlns:svg="http://www.w3.org/2000/svg"
   xmlns="http://www.w3.org/2000/svg"
   width="49"
   height="54"
   viewBox="0 0 49.000002 53.999999"
   id="svg4625"
   version="1.1">
  <defs
     id="defs4627" />
  <metadata
     id="metadata4630">
    <rdf:RDF>
      <cc:Work
         rdf:about="">
        <dc:format>image/svg+xml</dc:format>
        <dc:type
           rdf:resource="http://purl.org/dc/dcmitype/StillImage" />
        <dc:title></dc:title>
      </cc:Work>
    </rdf:RDF>
  </metadata>
  <circle
     r="19.145737"
     cy="34.854267"
     cx="19.145733"
     id="path4138-0-0-4-1-7-6-1-8"
     style="color:#000000;clip-rule:nonzero;display:inline;overflow:visible;visibility:visible;opacity:1;isolation:auto;mix-blend-mode:normal;color-interpolation:sRGB;color-interpolation-filters:linearRGB;solid-color:#000000;solid-opacity:1;fill:#faac2c;fill-opacity:1;fill-rule:evenodd;stroke:none;stroke-width:1.25;stroke-linecap:round;stroke-linejoin:round;stroke-miterlimit:4;stroke-dasharray:none;stroke-dashoffset:0;stroke-opacity:1;color-rendering:auto;image-rendering:auto;shape-rendering:auto;text-rendering:auto;enable-background:accumulate" />
  <path
     id="path5030"
     d="M 36.734486,30.919671 C 31.120483,30.843379 23.828641,29.82083 19.868014,26.603299"
     style="fill:none;fill-rule:evenodd;stroke:#515151;stroke-width:2.15818596;stroke-linecap:round;stroke-linejoin:round;stroke-miterlimit:4;stroke-dasharray:none;stroke-opacity:1" />
  <path
     id="path5032"
     d="m 25.426498,35.253222 c 2.736763,0.546668 4.397692,-2.271189 5.344596,-4.892489 -2.623653,0.04155 -5.848759,-1.100157 -7.802285,-1.880309 -0.397257,2.503744 -0.279086,6.226118 2.457689,6.772798 z"
     style="fill:#515151;fill-opacity:1;fill-rule:evenodd;stroke:none;stroke-width:1px;stroke-linecap:butt;stroke-linejoin:miter;stroke-opacity:1" />
  <path
     id="path4138-2-28-0-4-5-2-1-3-5"
     d="m 21.660521,5.8065504 a 10.644624,10.644624 0 0 0 -9.125975,11.9717276 10.644624,10.644624 0 0 0 0.06183,0.359845 10.644624,10.644624 0 0 0 0.704626,-0.05946 10.644624,10.644624 0 0 0 9.127422,-11.9719325 10.644624,10.644624 0 0 0 -0.06172,-0.3583884 10.644624,10.644624 0 0 0 -0.706245,0.058595 z"
     style="color:#000000;clip-rule:nonzero;display:inline;overflow:visible;visibility:visible;opacity:1;isolation:auto;mix-blend-mode:normal;color-interpolation:sRGB;color-interpolation-filters:linearRGB;solid-color:#000000;solid-opacity:1;fill:#479f00;fill-opacity:1;fill-rule:evenodd;stroke:none;stroke-width:1.25;stroke-linecap:round;stroke-linejoin:round;stroke-miterlimit:4;stroke-dasharray:none;stroke-dashoffset:0;stroke-opacity:1;color-rendering:auto;image-rendering:auto;shape-rendering:auto;text-rendering:auto;enable-background:accumulate" />
  <path
     id="path4138-2-5-1-6-8-0"
     d="m 0.61202479,14.03812 a 8.5008785,8.5008785 0 0 1 10.81989321,5.23959 8.5008785,8.5008785 0 0 1 0.08568,0.27873 8.5008785,8.5008785 0 0 1 -0.52349,0.211793 A 8.5008785,8.5008785 0 0 1 0.1731145,14.529021 8.5008785,8.5008785 0 0 1 0.08775824,14.251403 8.5008785,8.5008785 0 0 1 0.61198162,14.03812 Z"
     style="color:#000000;clip-rule:nonzero;display:inline;overflow:visible;visibility:visible;opacity:1;isolation:auto;mix-blend-mode:normal;color-interpolation:sRGB;color-interpolation-filters:linearRGB;solid-color:#000000;solid-opacity:1;fill:#479f00;fill-opacity:1;fill-rule:evenodd;stroke:none;stroke-width:1.25;stroke-linecap:round;stroke-linejoin:round;stroke-miterlimit:4;stroke-dasharray:none;stroke-dashoffset:0;stroke-opacity:1;color-rendering:auto;image-rendering:auto;shape-rendering:auto;text-rendering:auto;enable-background:accumulate" />
  <path
     id="circle5009"
     d="M 19.145102,15.709096 A 19.145736,19.145736 0 0 0 0.66773836,29.926987 14.696831,33.068858 80.543137 0 0 14.691728,28.590768 14.696831,33.068858 80.543137 0 0 33.253401,21.939163 19.145736,19.145736 0 0 0 19.145102,15.709096 Z"
     style="color:#000000;clip-rule:nonzero;display:inline;overflow:visible;visibility:visible;opacity:1;isolation:auto;mix-blend-mode:normal;color-interpolation:sRGB;color-interpolation-filters:linearRGB;solid-color:#000000;solid-opacity:1;fill:#479f00;fill-opacity:1;fill-rule:evenodd;stroke:none;stroke-width:1.25;stroke-linecap:round;stroke-linejoin:round;stroke-miterlimit:4;stroke-dasharray:none;stroke-dashoffset:0;stroke-opacity:1;color-rendering:auto;image-rendering:auto;shape-rendering:auto;text-rendering:auto;enable-background:accumulate" />
  <path
     id="path5028"
     d="m 10.246761,31.997357 c 0.783626,0.912923 5.654555,3.010799 7.500581,3.294557 -1.293369,0.311718 -5.04435,0.859552 -6.131968,0.41284 -1.087618,-0.446713 -1.550959,-2.517503 -1.368613,-3.707397 z"
     style="fill:#9a2400;fill-opacity:1;fill-rule:evenodd;stroke:none;stroke-width:1px;stroke-linecap:butt;stroke-linejoin:miter;stroke-opacity:1" />
  <path
     style="color:#000000;clip-rule:nonzero;display:inline;overflow:visible;visibility:visible;opacity:1;isolation:auto;mix-blend-mode:normal;color-interpolation:sRGB;color-interpolation-filters:linearRGB;solid-color:#000000;solid-opacity:1;fill:#479f00;fill-opacity:1;fill-rule:evenodd;stroke:none;stroke-width:1.25;stroke-linecap:round;stroke-linejoin:round;stroke-miterlimit:4;stroke-dasharray:none;stroke-dashoffset:0;stroke-opacity:1;color-rendering:auto;image-rendering:auto;shape-rendering:auto;text-rendering:auto;enable-background:accumulate"
     d="m 36.252654,47.148805 c 3.425559,1.044831 5.626401,-1.9001 5.998818,-4.269615 -2.878621,0.10942 -5.523607,-2.13477 -7.458605,-2.931864 -0.81206,2.175128 -1.965772,6.156647 1.459787,7.201479 z"
     id="path5032-4" />
  <path
     id="path4463"
     d="m 35.506429,39.219586 c -1.062454,-0.01759 -1.596875,1.531967 -0.778793,2.140295 1.869345,1.390066 4.346058,2.406571 7.798141,2.716703 1.433522,0.128789 1.660217,-1.673771 0.384665,-2.340521 -2.419327,-1.264632 -5.068144,-2.477845 -7.404013,-2.516477 z"
     style="color:#000000;font-style:normal;font-variant:normal;font-weight:normal;font-stretch:normal;font-size:medium;line-height:normal;font-family:sans-serif;text-indent:0;text-align:start;text-decoration:none;text-decoration-line:none;text-decoration-style:solid;text-decoration-color:#000000;letter-spacing:normal;word-spacing:normal;text-transform:none;direction:ltr;block-progression:tb;writing-mode:lr-tb;baseline-shift:baseline;text-anchor:start;white-space:normal;clip-rule:nonzero;display:inline;overflow:visible;visibility:visible;opacity:1;isolation:auto;mix-blend-mode:normal;color-interpolation:sRGB;color-interpolation-filters:linearRGB;solid-color:#000000;solid-opacity:1;fill:#515151;fill-opacity:1;fill-rule:evenodd;stroke:none;stroke-width:2;stroke-linecap:round;stroke-linejoin:round;stroke-miterlimit:4;stroke-dasharray:none;stroke-dashoffset:0;stroke-opacity:1;color-rendering:auto;image-rendering:auto;shape-rendering:auto;text-rendering:auto;enable-background:accumulate" />
  <path
     id="path4479"
     d="M 36.711786,40.958469 C 41.841481,28.638669 43.753418,15.962208 44.917835,4.1193022 53.613739,17.516922 46.338181,31.565687 41.229053,42.554534 Z"
     style="fill:#515151;fill-opacity:1;fill-rule:evenodd;stroke:none;stroke-width:1px;stroke-linecap:butt;stroke-linejoin:miter;stroke-opacity:1" />
  <path
     id="path4510"
     d="m 30.634,38.715078 c -4.457604,-0.62732 -7.65924,4.242368 -11.663992,3.794307 -4.004741,-0.448061 -9.1587586,-1.069479 -10.9333917,0.07305 1.4654406,0.528518 0.8992082,4.74925 3.3447787,5.548114 2.548418,0.674692 5.497428,-1.603058 8.853386,-1.686364 3.355957,-0.08331 5.570958,0.725183 6.745442,1.967424 3.236945,-2.752486 4.159418,-5.447045 3.653777,-9.696568 z"
     style="fill:#ffffff;fill-opacity:1;fill-rule:evenodd;stroke:none;stroke-width:1px;stroke-linecap:butt;stroke-linejoin:miter;stroke-opacity:1" />
</svg>